<svg xmlns="http://www.w3.org/2000/svg" width="960" height="640" viewBox="0 0 960 640" role="img" aria-label="Facade Detail Reference preview">
  <rect width="100%" height="100%" fill="#f7f5ef"/>
  <text x="18" y="28" font-family="Arial, sans-serif" font-size="18" font-weight="700" fill="#222">Building Group R7 Final Detail Reference Visual QA - Facade Detail Reference</text>
  <text x="18" y="48" font-family="Arial, sans-serif" font-size="12" fill="#555">axes x/z from snapshot bounding boxes</text>
  <g font-family="Arial, sans-serif"><rect x="582.876" y="595.445" width="313.528" height="1" rx="3" fill="hsl(328 58% 52%)" fill-opacity="0.48" stroke="hsl(328 58% 52%)" stroke-width="1.4"/>
  <rect x="592.674" y="594.334" width="284.135" height="1" rx="3" fill="hsl(30 58% 52%)" fill-opacity="0.48" stroke="hsl(30 58% 52%)" stroke-width="1.4"/>
  <rect x="416.314" y="547.978" width="146.966" height="48.022" rx="3" fill="hsl(37 58% 52%)" fill-opacity="0.48" stroke="hsl(37 58% 52%)" stroke-width="1.4"/><text x="420.314" y="559.978" font-size="10" fill="#1b1b1b">Admin_Office_Massing</text>
  <rect x="604.427" y="594.334" width="239.068" height="1" rx="3" fill="hsl(30 58% 52%)" fill-opacity="0.48" stroke="hsl(30 58% 52%)" stroke-width="1.4"/>
  <rect x="606.393" y="594.334" width="17.64" height="1" rx="3" fill="hsl(30 58% 52%)" fill-opacity="0.48" stroke="hsl(30 58% 52%)" stroke-width="1.4"/>
  <rect x="867.011" y="594.334" width="44.096" height="1" rx="3" fill="hsl(30 58% 52%)" fill-opacity="0.48" stroke="hsl(30 58% 52%)" stroke-width="1.4"/>
  <rect x="729.843" y="542.426" width="146.966" height="53.574" rx="3" fill="hsl(42 58% 52%)" fill-opacity="0.48" stroke="hsl(42 58% 52%)" stroke-width="1.4"/><text x="733.843" y="554.426" font-size="10" fill="#1b1b1b">Utility_Building_Massing</text>
  <rect x="44" y="595.514" width="872" height="1" rx="3" fill="hsl(184 58% 52%)" fill-opacity="0.48" stroke="hsl(184 58% 52%)" stroke-width="1.4"/>
  <rect x="147.225" y="529.31" width="91.461" height="66.69" rx="3" fill="hsl(234 58% 52%)" fill-opacity="0.48" stroke="hsl(234 58% 52%)" stroke-width="1.4"/><text x="151.225" y="541.31" font-size="10" fill="#1b1b1b">West_Warehouse_Row_Massing</text>
  <rect x="276.413" y="529.31" width="96.034" height="66.69" rx="3" fill="hsl(234 58% 52%)" fill-opacity="0.48" stroke="hsl(234 58% 52%)" stroke-width="1.4"/><text x="280.413" y="541.31" font-size="10" fill="#1b1b1b">Inner_Warehouse_Row_Massing</text>
  <rect x="433.04" y="479.692" width="234.369" height="116.308" rx="3" fill="hsl(119 58% 52%)" fill-opacity="0.48" stroke="hsl(119 58% 52%)" stroke-width="1.4"/><text x="437.04" y="491.692" font-size="10" fill="#1b1b1b">Primary_Blue_Roof_Hall_Massing</text>
  <rect x="790.98" y="498.846" width="43.894" height="97.154" rx="3" fill="hsl(314 58% 52%)" fill-opacity="0.48" stroke="hsl(314 58% 52%)" stroke-width="1.4"/><text x="794.98" y="510.846" font-size="10" fill="#1b1b1b">Tank_Farm_West_Silo</text>
  <rect x="840.36" y="498.846" width="43.894" height="97.154" rx="3" fill="hsl(314 58% 52%)" fill-opacity="0.48" stroke="hsl(314 58% 52%)" stroke-width="1.4"/><text x="844.36" y="510.846" font-size="10" fill="#1b1b1b">Tank_Farm_East_Silo</text></g>
</svg>