<svg xmlns="http://www.w3.org/2000/svg" width="960" height="640" viewBox="0 0 960 640" role="img" aria-label="Height And Roof Massing preview">
  <rect width="100%" height="100%" fill="#f7f5ef"/>
  <text x="18" y="28" font-family="Arial, sans-serif" font-size="18" font-weight="700" fill="#222">Building Group R7 Photoreal Layout QA - Height And Roof Massing</text>
  <text x="18" y="48" font-family="Arial, sans-serif" font-size="12" fill="#555">axes x/z from snapshot bounding boxes</text>
  <g font-family="Arial, sans-serif"><rect x="44" y="589.426" width="872" height="6.037" rx="3" fill="hsl(16 58% 52%)" fill-opacity="0.48" stroke="hsl(16 58% 52%)" stroke-width="1.4"/>
  <rect x="100.613" y="580.036" width="7.513" height="15.428" rx="3" fill="hsl(199 58% 52%)" fill-opacity="0.48" stroke="hsl(199 58% 52%)" stroke-width="1.4"/>
  <rect x="177.751" y="580.036" width="7.513" height="15.428" rx="3" fill="hsl(199 58% 52%)" fill-opacity="0.48" stroke="hsl(199 58% 52%)" stroke-width="1.4"/>
  <rect x="254.89" y="580.036" width="7.513" height="15.428" rx="3" fill="hsl(199 58% 52%)" fill-opacity="0.48" stroke="hsl(199 58% 52%)" stroke-width="1.4"/>
  <rect x="332.028" y="580.036" width="7.513" height="15.428" rx="3" fill="hsl(199 58% 52%)" fill-opacity="0.48" stroke="hsl(199 58% 52%)" stroke-width="1.4"/>
  <rect x="409.167" y="580.036" width="7.513" height="15.428" rx="3" fill="hsl(199 58% 52%)" fill-opacity="0.48" stroke="hsl(199 58% 52%)" stroke-width="1.4"/>
  <rect x="486.305" y="580.036" width="7.513" height="15.428" rx="3" fill="hsl(199 58% 52%)" fill-opacity="0.48" stroke="hsl(199 58% 52%)" stroke-width="1.4"/>
  <rect x="563.444" y="580.036" width="7.513" height="15.428" rx="3" fill="hsl(199 58% 52%)" fill-opacity="0.48" stroke="hsl(199 58% 52%)" stroke-width="1.4"/>
  <rect x="640.582" y="580.036" width="7.513" height="15.428" rx="3" fill="hsl(199 58% 52%)" fill-opacity="0.48" stroke="hsl(199 58% 52%)" stroke-width="1.4"/>
  <rect x="717.721" y="580.036" width="7.513" height="15.428" rx="3" fill="hsl(199 58% 52%)" fill-opacity="0.48" stroke="hsl(199 58% 52%)" stroke-width="1.4"/>
  <rect x="794.859" y="580.036" width="7.513" height="15.428" rx="3" fill="hsl(199 58% 52%)" fill-opacity="0.48" stroke="hsl(199 58% 52%)" stroke-width="1.4"/>
  <rect x="66.001" y="578.023" width="8.318" height="17.44" rx="3" fill="hsl(199 58% 52%)" fill-opacity="0.48" stroke="hsl(199 58% 52%)" stroke-width="1.4"/>
  <rect x="884.34" y="578.023" width="8.318" height="17.44" rx="3" fill="hsl(199 58% 52%)" fill-opacity="0.48" stroke="hsl(199 58% 52%)" stroke-width="1.4"/>
  <rect x="646.782" y="585.536" width="28.172" height="8.385" rx="3" fill="hsl(331 58% 52%)" fill-opacity="0.48" stroke="hsl(331 58% 52%)" stroke-width="1.4"/>
  <rect x="721.908" y="585.536" width="28.172" height="8.385" rx="3" fill="hsl(182 58% 52%)" fill-opacity="0.48" stroke="hsl(182 58% 52%)" stroke-width="1.4"/>
  <rect x="797.034" y="585.536" width="28.172" height="8.385" rx="3" fill="hsl(331 58% 52%)" fill-opacity="0.48" stroke="hsl(331 58% 52%)" stroke-width="1.4"/>
  <rect x="609.219" y="585.536" width="12.409" height="8.385" rx="3" fill="hsl(7 58% 52%)" fill-opacity="0.48" stroke="hsl(7 58% 52%)" stroke-width="1.4"/>
  <rect x="684.345" y="585.536" width="12.409" height="8.385" rx="3" fill="hsl(86 58% 52%)" fill-opacity="0.48" stroke="hsl(86 58% 52%)" stroke-width="1.4"/>
  <rect x="759.471" y="585.536" width="12.409" height="8.385" rx="3" fill="hsl(7 58% 52%)" fill-opacity="0.48" stroke="hsl(7 58% 52%)" stroke-width="1.4"/>
  <rect x="834.597" y="585.536" width="12.409" height="8.385" rx="3" fill="hsl(86 58% 52%)" fill-opacity="0.48" stroke="hsl(86 58% 52%)" stroke-width="1.4"/>
  <rect x="574.339" y="594.927" width="303.051" height="1" rx="3" fill="hsl(328 58% 52%)" fill-opacity="0.48" stroke="hsl(328 58% 52%)" stroke-width="1.4"/>
  <rect x="574.339" y="594.122" width="303.051" height="1" rx="3" fill="hsl(279 58% 52%)" fill-opacity="0.48" stroke="hsl(279 58% 52%)" stroke-width="1.4"/>
  <rect x="614.853" y="582.719" width="6.171" height="12.745" rx="3" fill="hsl(199 58% 52%)" fill-opacity="0.48" stroke="hsl(199 58% 52%)" stroke-width="1.4"/>
  <rect x="675.223" y="582.719" width="6.171" height="12.745" rx="3" fill="hsl(199 58% 52%)" fill-opacity="0.48" stroke="hsl(199 58% 52%)" stroke-width="1.4"/>
  <rect x="735.592" y="582.719" width="6.171" height="12.745" rx="3" fill="hsl(199 58% 52%)" fill-opacity="0.48" stroke="hsl(199 58% 52%)" stroke-width="1.4"/>
  <rect x="795.961" y="582.719" width="6.171" height="12.745" rx="3" fill="hsl(199 58% 52%)" fill-opacity="0.48" stroke="hsl(199 58% 52%)" stroke-width="1.4"/>
  <rect x="413.343" y="549.046" width="142.055" height="46.417" rx="3" fill="hsl(37 58% 52%)" fill-opacity="0.48" stroke="hsl(37 58% 52%)" stroke-width="1.4"/><text x="417.343" y="561.046" font-size="10" fill="#1b1b1b">Admin_Office_Massing</text>
  <rect x="413.343" y="549.247" width="142.055" height="1" rx="3" fill="hsl(121 58% 52%)" fill-opacity="0.48" stroke="hsl(121 58% 52%)" stroke-width="1.4"/>
  <rect x="646.782" y="585.536" width="28.172" height="8.385" rx="3" fill="hsl(7 58% 52%)" fill-opacity="0.48" stroke="hsl(7 58% 52%)" stroke-width="1.4"/>
  <rect x="721.908" y="585.536" width="28.172" height="8.385" rx="3" fill="hsl(86 58% 52%)" fill-opacity="0.48" stroke="hsl(86 58% 52%)" stroke-width="1.4"/>
  <rect x="797.034" y="585.536" width="28.172" height="8.385" rx="3" fill="hsl(7 58% 52%)" fill-opacity="0.48" stroke="hsl(7 58% 52%)" stroke-width="1.4"/>
  <rect x="495.735" y="545.29" width="14.086" height="4.025" rx="3" fill="hsl(57 58% 52%)" fill-opacity="0.48" stroke="hsl(57 58% 52%)" stroke-width="1.4"/>
  <rect x="66.001" y="578.023" width="8.318" height="17.44" rx="3" fill="hsl(199 58% 52%)" fill-opacity="0.48" stroke="hsl(199 58% 52%)" stroke-width="1.4"/>
  <rect x="884.34" y="578.023" width="8.318" height="17.44" rx="3" fill="hsl(199 58% 52%)" fill-opacity="0.48" stroke="hsl(199 58% 52%)" stroke-width="1.4"/>
  <rect x="609.219" y="585.536" width="12.409" height="8.385" rx="3" fill="hsl(182 58% 52%)" fill-opacity="0.48" stroke="hsl(182 58% 52%)" stroke-width="1.4"/>
  <rect x="684.345" y="585.536" width="12.409" height="8.385" rx="3" fill="hsl(331 58% 52%)" fill-opacity="0.48" stroke="hsl(331 58% 52%)" stroke-width="1.4"/>
  <rect x="759.471" y="585.536" width="12.409" height="8.385" rx="3" fill="hsl(182 58% 52%)" fill-opacity="0.48" stroke="hsl(182 58% 52%)" stroke-width="1.4"/>
  <rect x="834.597" y="585.536" width="12.409" height="8.385" rx="3" fill="hsl(331 58% 52%)" fill-opacity="0.48" stroke="hsl(331 58% 52%)" stroke-width="1.4"/>
  <rect x="180.045" y="530.801" width="2.549" height="2.817" rx="3" fill="hsl(83 58% 52%)" fill-opacity="0.48" stroke="hsl(83 58% 52%)" stroke-width="1.4"/>
  <rect x="350.511" y="530.801" width="2.549" height="2.817" rx="3" fill="hsl(83 58% 52%)" fill-opacity="0.48" stroke="hsl(83 58% 52%)" stroke-width="1.4"/>
  <rect x="180.045" y="530.801" width="2.549" height="2.817" rx="3" fill="hsl(83 58% 52%)" fill-opacity="0.48" stroke="hsl(83 58% 52%)" stroke-width="1.4"/>
  <rect x="282.435" y="576.011" width="10.732" height="19.452" rx="3" fill="hsl(67 58% 52%)" fill-opacity="0.48" stroke="hsl(67 58% 52%)" stroke-width="1.4"/>
  <rect x="350.511" y="530.801" width="2.549" height="2.817" rx="3" fill="hsl(83 58% 52%)" fill-opacity="0.48" stroke="hsl(83 58% 52%)" stroke-width="1.4"/>
  <rect x="66.001" y="578.023" width="8.318" height="17.44" rx="3" fill="hsl(199 58% 52%)" fill-opacity="0.48" stroke="hsl(199 58% 52%)" stroke-width="1.4"/>
  <rect x="884.34" y="578.023" width="8.318" height="17.44" rx="3" fill="hsl(199 58% 52%)" fill-opacity="0.48" stroke="hsl(199 58% 52%)" stroke-width="1.4"/>
  <rect x="415.02" y="576.011" width="10.732" height="19.452" rx="3" fill="hsl(67 58% 52%)" fill-opacity="0.48" stroke="hsl(67 58% 52%)" stroke-width="1.4"/>
  <rect x="81.881" y="539.722" width="198.877" height="55.741" rx="3" fill="hsl(234 58% 52%)" fill-opacity="0.48" stroke="hsl(234 58% 52%)" stroke-width="1.4"/><text x="85.881" y="551.722" font-size="10" fill="#1b1b1b">Warehouse_West_South_Body</text>
  <rect x="79.064" y="534.423" width="204.512" height="6.037" rx="3" fill="hsl(234 58% 52%)" fill-opacity="0.48" stroke="hsl(234 58% 52%)" stroke-width="1.4"/>
  <rect x="81.881" y="533.954" width="198.877" height="1" rx="3" fill="hsl(310 58% 52%)" fill-opacity="0.48" stroke="hsl(310 58% 52%)" stroke-width="1.4"/>
  <rect x="180.045" y="530.801" width="2.549" height="2.817" rx="3" fill="hsl(83 58% 52%)" fill-opacity="0.48" stroke="hsl(83 58% 52%)" stroke-width="1.4"/>
  <rect x="290.229" y="539.722" width="123.114" height="55.741" rx="3" fill="hsl(234 58% 52%)" fill-opacity="0.48" stroke="hsl(234 58% 52%)" stroke-width="1.4"/><text x="294.229" y="551.722" font-size="10" fill="#1b1b1b">Warehouse_Inner_South_Body</text>
  <rect x="287.411" y="534.423" width="128.749" height="6.037" rx="3" fill="hsl(234 58% 52%)" fill-opacity="0.48" stroke="hsl(234 58% 52%)" stroke-width="1.4"/>
  <rect x="290.229" y="533.954" width="123.114" height="1" rx="3" fill="hsl(351 58% 52%)" fill-opacity="0.48" stroke="hsl(351 58% 52%)" stroke-width="1.4"/>
  <rect x="350.511" y="530.801" width="2.549" height="2.817" rx="3" fill="hsl(83 58% 52%)" fill-opacity="0.48" stroke="hsl(83 58% 52%)" stroke-width="1.4"/>
  <rect x="422.759" y="582.719" width="4.293" height="12.745" rx="3" fill="hsl(199 58% 52%)" fill-opacity="0.48" stroke="hsl(199 58% 52%)" stroke-width="1.4"/>
  <rect x="712.155" y="582.719" width="4.293" height="12.745" rx="3" fill="hsl(199 58% 52%)" fill-opacity="0.48" stroke="hsl(199 58% 52%)" stroke-width="1.4"/>
  <rect x="180.045" y="530.801" width="2.549" height="2.817" rx="3" fill="hsl(83 58% 52%)" fill-opacity="0.48" stroke="hsl(83 58% 52%)" stroke-width="1.4"/>
  <rect x="350.511" y="530.801" width="2.549" height="2.817" rx="3" fill="hsl(83 58% 52%)" fill-opacity="0.48" stroke="hsl(83 58% 52%)" stroke-width="1.4"/>
  <rect x="180.045" y="530.801" width="2.549" height="2.817" rx="3" fill="hsl(83 58% 52%)" fill-opacity="0.48" stroke="hsl(83 58% 52%)" stroke-width="1.4"/>
  <rect x="282.435" y="576.011" width="10.732" height="19.452" rx="3" fill="hsl(67 58% 52%)" fill-opacity="0.48" stroke="hsl(67 58% 52%)" stroke-width="1.4"/>
  <rect x="66.001" y="578.023" width="8.318" height="17.44" rx="3" fill="hsl(199 58% 52%)" fill-opacity="0.48" stroke="hsl(199 58% 52%)" stroke-width="1.4"/>
  <rect x="884.34" y="578.023" width="8.318" height="17.44" rx="3" fill="hsl(199 58% 52%)" fill-opacity="0.48" stroke="hsl(199 58% 52%)" stroke-width="1.4"/>
  <rect x="350.511" y="530.801" width="2.549" height="2.817" rx="3" fill="hsl(83 58% 52%)" fill-opacity="0.48" stroke="hsl(83 58% 52%)" stroke-width="1.4"/>
  <rect x="415.02" y="576.011" width="10.732" height="19.452" rx="3" fill="hsl(67 58% 52%)" fill-opacity="0.48" stroke="hsl(67 58% 52%)" stroke-width="1.4"/>
  <rect x="716.394" y="543.68" width="142.055" height="51.783" rx="3" fill="hsl(42 58% 52%)" fill-opacity="0.48" stroke="hsl(42 58% 52%)" stroke-width="1.4"/><text x="720.394" y="555.68" font-size="10" fill="#1b1b1b">Utility_Building_Massing</text>
  <rect x="716.394" y="543.881" width="142.055" height="1" rx="3" fill="hsl(252 58% 52%)" fill-opacity="0.48" stroke="hsl(252 58% 52%)" stroke-width="1.4"/>
  <rect x="422.759" y="582.719" width="4.293" height="12.745" rx="3" fill="hsl(199 58% 52%)" fill-opacity="0.48" stroke="hsl(199 58% 52%)" stroke-width="1.4"/>
  <rect x="712.155" y="582.719" width="4.293" height="12.745" rx="3" fill="hsl(199 58% 52%)" fill-opacity="0.48" stroke="hsl(199 58% 52%)" stroke-width="1.4"/>
  <rect x="795.944" y="539.588" width="15.428" height="4.36" rx="3" fill="hsl(57 58% 52%)" fill-opacity="0.48" stroke="hsl(57 58% 52%)" stroke-width="1.4"/>
  <rect x="747.646" y="539.588" width="12.745" height="4.36" rx="3" fill="hsl(57 58% 52%)" fill-opacity="0.48" stroke="hsl(57 58% 52%)" stroke-width="1.4"/>
  <rect x="44" y="595.463" width="872" height="1" rx="3" fill="hsl(62 58% 52%)" fill-opacity="0.48" stroke="hsl(62 58% 52%)" stroke-width="1.4"/>
  <rect x="44" y="594.39" width="872" height="1" rx="3" fill="hsl(10 58% 52%)" fill-opacity="0.48" stroke="hsl(10 58% 52%)" stroke-width="1.4"/>
  <rect x="44" y="589.426" width="1.476" height="6.037" rx="3" fill="hsl(16 58% 52%)" fill-opacity="0.48" stroke="hsl(16 58% 52%)" stroke-width="1.4"/>
  <rect x="914.524" y="589.426" width="1.476" height="6.037" rx="3" fill="hsl(16 58% 52%)" fill-opacity="0.48" stroke="hsl(16 58% 52%)" stroke-width="1.4"/>
  <rect x="53.471" y="594.994" width="842.86" height="1" rx="3" fill="hsl(184 58% 52%)" fill-opacity="0.48" stroke="hsl(184 58% 52%)" stroke-width="1.4"/>
  <rect x="422.759" y="582.719" width="4.293" height="12.745" rx="3" fill="hsl(199 58% 52%)" fill-opacity="0.48" stroke="hsl(199 58% 52%)" stroke-width="1.4"/>
  <rect x="712.155" y="582.719" width="4.293" height="12.745" rx="3" fill="hsl(199 58% 52%)" fill-opacity="0.48" stroke="hsl(199 58% 52%)" stroke-width="1.4"/>
  <rect x="66.001" y="578.023" width="8.318" height="17.44" rx="3" fill="hsl(199 58% 52%)" fill-opacity="0.48" stroke="hsl(199 58% 52%)" stroke-width="1.4"/>
  <rect x="884.34" y="578.023" width="8.318" height="17.44" rx="3" fill="hsl(199 58% 52%)" fill-opacity="0.48" stroke="hsl(199 58% 52%)" stroke-width="1.4"/>
  <rect x="432.283" y="501.153" width="274.64" height="94.31" rx="3" fill="hsl(119 58% 52%)" fill-opacity="0.48" stroke="hsl(119 58% 52%)" stroke-width="1.4"/><text x="436.283" y="513.153" font-size="10" fill="#1b1b1b">Primary_Blue_Roof_Hall_Body</text>
  <rect x="427.588" y="484.116" width="284.031" height="18.782" rx="3" fill="hsl(119 58% 52%)" fill-opacity="0.48" stroke="hsl(119 58% 52%)" stroke-width="1.4"/><text x="431.588" y="496.116" font-size="10" fill="#1b1b1b">Primary_Blue_Hall_Gable_Roof</text>
  <rect x="432.283" y="483.512" width="274.64" height="1" rx="3" fill="hsl(344 58% 52%)" fill-opacity="0.48" stroke="hsl(344 58% 52%)" stroke-width="1.4"/>
  <rect x="422.759" y="582.719" width="4.293" height="12.745" rx="3" fill="hsl(199 58% 52%)" fill-opacity="0.48" stroke="hsl(199 58% 52%)" stroke-width="1.4"/>
  <rect x="712.155" y="582.719" width="4.293" height="12.745" rx="3" fill="hsl(199 58% 52%)" fill-opacity="0.48" stroke="hsl(199 58% 52%)" stroke-width="1.4"/>
  <rect x="350.511" y="530.801" width="2.549" height="2.817" rx="3" fill="hsl(83 58% 52%)" fill-opacity="0.48" stroke="hsl(83 58% 52%)" stroke-width="1.4"/>
  <rect x="66.001" y="578.023" width="8.318" height="17.44" rx="3" fill="hsl(199 58% 52%)" fill-opacity="0.48" stroke="hsl(199 58% 52%)" stroke-width="1.4"/>
  <rect x="884.34" y="578.023" width="8.318" height="17.44" rx="3" fill="hsl(199 58% 52%)" fill-opacity="0.48" stroke="hsl(199 58% 52%)" stroke-width="1.4"/>
  <rect x="180.045" y="530.801" width="2.549" height="2.817" rx="3" fill="hsl(83 58% 52%)" fill-opacity="0.48" stroke="hsl(83 58% 52%)" stroke-width="1.4"/>
  <rect x="350.511" y="530.801" width="2.549" height="2.817" rx="3" fill="hsl(83 58% 52%)" fill-opacity="0.48" stroke="hsl(83 58% 52%)" stroke-width="1.4"/>
  <rect x="422.759" y="582.719" width="4.293" height="12.745" rx="3" fill="hsl(199 58% 52%)" fill-opacity="0.48" stroke="hsl(199 58% 52%)" stroke-width="1.4"/>
  <rect x="712.155" y="582.719" width="4.293" height="12.745" rx="3" fill="hsl(199 58% 52%)" fill-opacity="0.48" stroke="hsl(199 58% 52%)" stroke-width="1.4"/>
  <rect x="180.045" y="530.801" width="2.549" height="2.817" rx="3" fill="hsl(83 58% 52%)" fill-opacity="0.48" stroke="hsl(83 58% 52%)" stroke-width="1.4"/>
  <rect x="415.02" y="576.011" width="10.732" height="19.452" rx="3" fill="hsl(67 58% 52%)" fill-opacity="0.48" stroke="hsl(67 58% 52%)" stroke-width="1.4"/>
  <rect x="282.435" y="576.011" width="10.732" height="19.452" rx="3" fill="hsl(67 58% 52%)" fill-opacity="0.48" stroke="hsl(67 58% 52%)" stroke-width="1.4"/>
  <rect x="290.229" y="539.722" width="123.114" height="55.741" rx="3" fill="hsl(234 58% 52%)" fill-opacity="0.48" stroke="hsl(234 58% 52%)" stroke-width="1.4"/><text x="294.229" y="551.722" font-size="10" fill="#1b1b1b">Warehouse_Inner_North_Body</text>
  <rect x="287.411" y="534.423" width="128.749" height="6.037" rx="3" fill="hsl(234 58% 52%)" fill-opacity="0.48" stroke="hsl(234 58% 52%)" stroke-width="1.4"/>
  <rect x="290.229" y="533.954" width="123.114" height="1" rx="3" fill="hsl(297 58% 52%)" fill-opacity="0.48" stroke="hsl(297 58% 52%)" stroke-width="1.4"/>
  <rect x="350.511" y="530.801" width="2.549" height="2.817" rx="3" fill="hsl(83 58% 52%)" fill-opacity="0.48" stroke="hsl(83 58% 52%)" stroke-width="1.4"/>
  <rect x="81.881" y="539.722" width="198.877" height="55.741" rx="3" fill="hsl(234 58% 52%)" fill-opacity="0.48" stroke="hsl(234 58% 52%)" stroke-width="1.4"/><text x="85.881" y="551.722" font-size="10" fill="#1b1b1b">Warehouse_West_North_Body</text>
  <rect x="79.064" y="534.423" width="204.512" height="6.037" rx="3" fill="hsl(234 58% 52%)" fill-opacity="0.48" stroke="hsl(234 58% 52%)" stroke-width="1.4"/>
  <rect x="81.881" y="533.954" width="198.877" height="1" rx="3" fill="hsl(22 58% 52%)" fill-opacity="0.48" stroke="hsl(22 58% 52%)" stroke-width="1.4"/>
  <rect x="180.045" y="530.801" width="2.549" height="2.817" rx="3" fill="hsl(83 58% 52%)" fill-opacity="0.48" stroke="hsl(83 58% 52%)" stroke-width="1.4"/>
  <rect x="66.001" y="578.023" width="8.318" height="17.44" rx="3" fill="hsl(199 58% 52%)" fill-opacity="0.48" stroke="hsl(199 58% 52%)" stroke-width="1.4"/>
  <rect x="884.34" y="578.023" width="8.318" height="17.44" rx="3" fill="hsl(199 58% 52%)" fill-opacity="0.48" stroke="hsl(199 58% 52%)" stroke-width="1.4"/>
  <rect x="350.511" y="530.801" width="2.549" height="2.817" rx="3" fill="hsl(83 58% 52%)" fill-opacity="0.48" stroke="hsl(83 58% 52%)" stroke-width="1.4"/>
  <rect x="422.759" y="582.719" width="4.293" height="12.745" rx="3" fill="hsl(199 58% 52%)" fill-opacity="0.48" stroke="hsl(199 58% 52%)" stroke-width="1.4"/>
  <rect x="712.155" y="582.719" width="4.293" height="12.745" rx="3" fill="hsl(199 58% 52%)" fill-opacity="0.48" stroke="hsl(199 58% 52%)" stroke-width="1.4"/>
  <rect x="180.045" y="530.801" width="2.549" height="2.817" rx="3" fill="hsl(83 58% 52%)" fill-opacity="0.48" stroke="hsl(83 58% 52%)" stroke-width="1.4"/>
  <rect x="350.511" y="530.801" width="2.549" height="2.817" rx="3" fill="hsl(83 58% 52%)" fill-opacity="0.48" stroke="hsl(83 58% 52%)" stroke-width="1.4"/>
  <rect x="415.02" y="576.011" width="10.732" height="19.452" rx="3" fill="hsl(67 58% 52%)" fill-opacity="0.48" stroke="hsl(67 58% 52%)" stroke-width="1.4"/>
  <rect x="180.045" y="530.801" width="2.549" height="2.817" rx="3" fill="hsl(83 58% 52%)" fill-opacity="0.48" stroke="hsl(83 58% 52%)" stroke-width="1.4"/>
  <rect x="282.435" y="576.011" width="10.732" height="19.452" rx="3" fill="hsl(67 58% 52%)" fill-opacity="0.48" stroke="hsl(67 58% 52%)" stroke-width="1.4"/>
  <rect x="775.489" y="501.556" width="42.427" height="93.908" rx="3" fill="hsl(314 58% 52%)" fill-opacity="0.48" stroke="hsl(314 58% 52%)" stroke-width="1.4"/><text x="779.489" y="513.556" font-size="10" fill="#1b1b1b">Tank_Farm_West_Silo</text>
  <rect x="823.219" y="501.556" width="42.427" height="93.908" rx="3" fill="hsl(314 58% 52%)" fill-opacity="0.48" stroke="hsl(314 58% 52%)" stroke-width="1.4"/><text x="827.219" y="513.556" font-size="10" fill="#1b1b1b">Tank_Farm_East_Silo</text>
  <rect x="775.489" y="500.751" width="90.157" height="1" rx="3" fill="hsl(14 58% 52%)" fill-opacity="0.48" stroke="hsl(14 58% 52%)" stroke-width="1.4"/>
  <rect x="66.001" y="578.023" width="8.318" height="17.44" rx="3" fill="hsl(199 58% 52%)" fill-opacity="0.48" stroke="hsl(199 58% 52%)" stroke-width="1.4"/>
  <rect x="884.34" y="578.023" width="8.318" height="17.44" rx="3" fill="hsl(199 58% 52%)" fill-opacity="0.48" stroke="hsl(199 58% 52%)" stroke-width="1.4"/>
  <rect x="100.613" y="580.036" width="7.513" height="15.428" rx="3" fill="hsl(199 58% 52%)" fill-opacity="0.48" stroke="hsl(199 58% 52%)" stroke-width="1.4"/>
  <rect x="177.751" y="580.036" width="7.513" height="15.428" rx="3" fill="hsl(199 58% 52%)" fill-opacity="0.48" stroke="hsl(199 58% 52%)" stroke-width="1.4"/>
  <rect x="254.89" y="580.036" width="7.513" height="15.428" rx="3" fill="hsl(199 58% 52%)" fill-opacity="0.48" stroke="hsl(199 58% 52%)" stroke-width="1.4"/>
  <rect x="332.028" y="580.036" width="7.513" height="15.428" rx="3" fill="hsl(199 58% 52%)" fill-opacity="0.48" stroke="hsl(199 58% 52%)" stroke-width="1.4"/>
  <rect x="409.167" y="580.036" width="7.513" height="15.428" rx="3" fill="hsl(199 58% 52%)" fill-opacity="0.48" stroke="hsl(199 58% 52%)" stroke-width="1.4"/>
  <rect x="486.305" y="580.036" width="7.513" height="15.428" rx="3" fill="hsl(199 58% 52%)" fill-opacity="0.48" stroke="hsl(199 58% 52%)" stroke-width="1.4"/>
  <rect x="563.444" y="580.036" width="7.513" height="15.428" rx="3" fill="hsl(199 58% 52%)" fill-opacity="0.48" stroke="hsl(199 58% 52%)" stroke-width="1.4"/>
  <rect x="640.582" y="580.036" width="7.513" height="15.428" rx="3" fill="hsl(199 58% 52%)" fill-opacity="0.48" stroke="hsl(199 58% 52%)" stroke-width="1.4"/>
  <rect x="717.721" y="580.036" width="7.513" height="15.428" rx="3" fill="hsl(199 58% 52%)" fill-opacity="0.48" stroke="hsl(199 58% 52%)" stroke-width="1.4"/>
  <rect x="794.859" y="580.036" width="7.513" height="15.428" rx="3" fill="hsl(199 58% 52%)" fill-opacity="0.48" stroke="hsl(199 58% 52%)" stroke-width="1.4"/>
  <rect x="44" y="589.426" width="872" height="6.037" rx="3" fill="hsl(16 58% 52%)" fill-opacity="0.48" stroke="hsl(16 58% 52%)" stroke-width="1.4"/></g>
</svg>